<?xml version="1.0" standalone="yes"?>
<svg xmlns="http://www.w3.org/2000/svg" width="305" height="219">
<path style="fill:#fefefe; stroke:none;" d="M0 0L0 219L305 219L305 0L147 0L150 5C158.914 5.85434 164.787 20.18 169.333 27L180.67 44C183.239 47.8119 189.875 54.1051 189.694 58.9599C189.545 62.9749 177.183 71.9436 173.326 70.669C169.509 69.4077 166.45 62.1441 164.33 59C157.355 48.6514 150.258 38.3872 143.333 28C140.387 23.581 136.159 19.4092 138 14L138 13C134.177 6.51447 140.428 3.43549 146 1C134.544 -3.80707 114.468 0 102 0L0 0z"/>
<path style="fill:#94a9d0; stroke:none;" d="M146 0L147 1L146 0M144 1L145 2L144 1z"/>
<path style="fill:#4166ae; stroke:none;" d="M150 5L148 1C145.668 1.42209 131.537 7.50246 137.492 10.8426C140.95 12.7816 147.325 6.80481 150 5z"/>
<path style="fill:#94a9d0; stroke:none;" d="M142 2L143 3L142 2M148 2L149 3L148 2M140 3L141 4L140 3M149 3L150 4L149 3M156 3L157 4L156 3z"/>
<path style="fill:#4166ae; stroke:none;" d="M157 3C161.443 14.723 171.119 25.7516 178.28 36C180.567 39.2731 183.388 46.0572 188.04 46.1528C204.087 46.4825 209.055 20.0925 200.467 10.1852C190.915 -0.834045 169.974 3 157 3z"/>
<path style="fill:#94a9d0; stroke:none;" d="M186 3L186 4L190 4L186 3M139 4L140 5L139 4z"/>
<path style="fill:#ee6f79; stroke:none;" d="M152.667 4.33333L153.333 4.66667L152.667 4.33333z"/>
<path style="fill:#94a9d0; stroke:none;" d="M192 4L193 5L192 4M138 5L139 6L138 5M149 5L150 6L149 5z"/>
<path style="fill:#ee6f79; stroke:none;" d="M150 5L149 7L150 5z"/>
<path style="fill:#ed3338; stroke:none;" d="M136 15C142.273 34.6859 161.426 54.8436 173 72L191 61C186.348 46.4008 172.694 31.6381 164.025 19C161.606 15.4743 158.063 6.99054 153.674 5.73689C148.817 4.3494 140.154 12.6963 136 15z"/>
<path style="fill:#94a9d0; stroke:none;" d="M157 5L158 6L157 5M194 5L195 6L194 5M136 6L137 7L136 6M147 6L146 8L148 8L147 6z"/>
<path style="fill:#fefefe; stroke:none;" d="M148 6L149 7L148 6z"/>
<path style="fill:#ee6f79; stroke:none;" d="M155 6L156 7L155 6z"/>
<path style="fill:#94a9d0; stroke:none;" d="M158 6L159 7L158 6M196 6L197 7L196 6M135 7L136 8L135 7z"/>
<path style="fill:#ee6f79; stroke:none;" d="M156 7L157 8L156 7z"/>
<path style="fill:#94a9d0; stroke:none;" d="M197 7L198 8L197 7M144 8L143 10L144 8z"/>
<path style="fill:#fefefe; stroke:none;" d="M145 8L146 9L145 8z"/>
<path style="fill:#ee6f79; stroke:none;" d="M146 8L147 9L146 8z"/>
<path style="fill:#94a9d0; stroke:none;" d="M159 8L160 9L159 8M199 8L200 9L199 8M135 9L136 10L135 9z"/>
<path style="fill:#ee6f79; stroke:none;" d="M144.667 9.33333L145.333 9.66667L144.667 9.33333M157 9L158 10L157 9z"/>
<path style="fill:#94a9d0; stroke:none;" d="M160 9L161 10L160 9M200 9L201 10L200 9M141 10L137 13L141 10z"/>
<path style="fill:#fefefe; stroke:none;" d="M142 10L143 11L142 10z"/>
<path style="fill:#ee6f79; stroke:none;" d="M143 10L144 11L143 10M158 10L159 11L158 10z"/>
<path style="fill:#94a9d0; stroke:none;" d="M136 11L137 12L136 11z"/>
<path style="fill:#ee6f79; stroke:none;" d="M141 11L142 12L141 11z"/>
<path style="fill:#94a9d0; stroke:none;" d="M161 11L162 12L161 11M201 11L202 12L201 11z"/>
<path style="fill:#ee6f79; stroke:none;" d="M140 12L141 13L140 12M159 12L160 13L159 12z"/>
<path style="fill:#94a9d0; stroke:none;" d="M162 12L163 13L162 12M202 12L203 13L202 12z"/>
<path style="fill:#ee6f79; stroke:none;" d="M160 13L161 14L160 13M137 14L138 15L137 14z"/>
<path style="fill:#94a9d0; stroke:none;" d="M163 14L164 15L163 14M203 14L204 15L203 14z"/>
<path style="fill:#ee6f79; stroke:none;" d="M161 15L162 16L161 15z"/>
<path style="fill:#94a9d0; stroke:none;" d="M164 15L165 16L164 15z"/>
<path style="fill:#ee6f79; stroke:none;" d="M162 16L163 17L162 16M136 17L137 18L136 17z"/>
<path style="fill:#94a9d0; stroke:none;" d="M165 17L166 18L165 17M204.333 17.6667L204.667 18.3333L204.333 17.6667z"/>
<path style="fill:#ee6f79; stroke:none;" d="M163 18L164 19L163 18z"/>
<path style="fill:#94a9d0; stroke:none;" d="M166 18L167 19L166 18z"/>
<path style="fill:#ee6f79; stroke:none;" d="M137 19L138 20L137 19M164 19L165 20L164 19z"/>
<path style="fill:#94a9d0; stroke:none;" d="M65 20L66 21L65 20z"/>
<path style="fill:#4166ae; stroke:none;" d="M66 20C55.4775 38.4899 48.3083 60.245 40.3997 80C34.2916 95.2576 29.3151 108.542 11 110L11 112L57 112L57 110C44.8651 108.173 45.0427 100.728 48.811 91C53.554 78.755 60.9632 66.7849 64 54L66 54C69.3105 65.496 74.8256 76.722 78.9468 88C87.1563 110.466 94.0201 134.151 115 148.251C141.496 166.058 202.373 159.711 211 123L224 123L224 117L177 117L177 80L171 80L171 123L199 123C195.393 128.751 190.363 133.197 185 137.321C135.82 175.136 76.6616 96.9526 125.004 58.0039C131.9 52.4476 139.325 48.8136 148 47L143 37C122.041 40.1393 101.119 59.8824 98 81C93.635 76.5011 92.4119 69.7388 90.189 64C84.7196 49.8798 78.3341 29.5195 66 20z"/>
<path style="fill:#ee6f79; stroke:none;" d="M138 20L139 21L138 20z"/>
<path style="fill:#94a9d0; stroke:none;" d="M167 20L168 21L167 20z"/>
<path style="fill:#ee6f79; stroke:none;" d="M165 21L166 22L165 21z"/>
<path style="fill:#94a9d0; stroke:none;" d="M168 21L169 22L168 21M64 22L65 23L64 22z"/>
<path style="fill:#ee6f79; stroke:none;" d="M139 22L140 23L139 22M166 22L167 23L166 22M140 23L141 24L140 23z"/>
<path style="fill:#94a9d0; stroke:none;" d="M169 23L170 24L169 23M63 24L64 25L63 24M70 24L71 25L70 24M170 24L171 25L170 24M71 25L72 26L71 25z"/>
<path style="fill:#ee6f79; stroke:none;" d="M141 25L142 26L141 25M168 25L169 26L168 25z"/>
<path style="fill:#94a9d0; stroke:none;" d="M62.3333 26.6667L62.6667 27.3333L62.3333 26.6667z"/>
<path style="fill:#ee6f79; stroke:none;" d="M142 26L143 27L142 26z"/>
<path style="fill:#94a9d0; stroke:none;" d="M72 27L73 28L72 27z"/>
<path style="fill:#ee6f79; stroke:none;" d="M143 27L144 28L143 27M169 27L170 28L169 27z"/>
<path style="fill:#94a9d0; stroke:none;" d="M172 27L173 28L172 27M73 28L74 29L73 28M143 28L144 29L143 28z"/>
<path style="fill:#ee6f79; stroke:none;" d="M170 28L171 29L170 28z"/>
<path style="fill:#94a9d0; stroke:none;" d="M204.333 28.6667L204.667 29.3333L204.333 28.6667M61 29L62 30L61 29z"/>
<path style="fill:#ee6f79; stroke:none;" d="M144 29L145 30L144 29z"/>
<path style="fill:#94a9d0; stroke:none;" d="M74 30L75 31L74 30z"/>
<path style="fill:#ee6f79; stroke:none;" d="M145.333 30.6667L145.667 31.3333L145.333 30.6667M171 30L172 31L171 30z"/>
<path style="fill:#94a9d0; stroke:none;" d="M174 30L175 31L174 30M60 31L61 32L60 31M75 31L76 32L75 31z"/>
<path style="fill:#ee6f79; stroke:none;" d="M172 31L173 32L172 31M146 32L147 33L146 32z"/>
<path style="fill:#94a9d0; stroke:none;" d="M203 32L204 33L203 32M59.3333 33.6667L59.6667 34.3333L59.3333 33.6667M76 33L77 34L76 33z"/>
<path style="fill:#ee6f79; stroke:none;" d="M173 33L174 34L173 33z"/>
<path style="fill:#94a9d0; stroke:none;" d="M176 33L177 34L176 33M147 34L148 35L147 34z"/>
<path style="fill:#ee6f79; stroke:none;" d="M174 34L175 35L174 34z"/>
<path style="fill:#94a9d0; stroke:none;" d="M177 34L178 35L177 34M202 34L203 35L202 34M77 35L78 36L77 35z"/>
<path style="fill:#ee6f79; stroke:none;" d="M148 35L149 36L148 35z"/>
<path style="fill:#94a9d0; stroke:none;" d="M58 36L59 37L58 36z"/>
<path style="fill:#ee6f79; stroke:none;" d="M175 36L176 37L175 36z"/>
<path style="fill:#94a9d0; stroke:none;" d="M178 36L179 37L178 36M201 36L202 37L201 36M78 37L79 38L78 37M139 37L140 38L139 37M143.333 37.6667L143.667 38.3333L143.333 37.6667z"/>
<path style="fill:#ee6f79; stroke:none;" d="M149 37L150 38L149 37M176 37L177 38L176 37z"/>
<path style="fill:#94a9d0; stroke:none;" d="M179 37L180 38L179 37M200 37L201 38L200 37M57.3333 38.6667L57.6667 39.3333L57.3333 38.6667M136 38L137 39L136 38z"/>
<path style="fill:#ee6f79; stroke:none;" d="M150 38L151 39L150 38z"/>
<path style="fill:#94a9d0; stroke:none;" d="M79 39L80 40L79 39M133.667 39.3333L134.333 39.6667L133.667 39.3333M144 39L145 40L144 39z"/>
<path style="fill:#ee6f79; stroke:none;" d="M177 39L178 40L177 39z"/>
<path style="fill:#94a9d0; stroke:none;" d="M180 39L181 40L180 39M199 39L200 40L199 39M131 40L132 41L131 40M151 40L152 41L151 40z"/>
<path style="fill:#ee6f79; stroke:none;" d="M178 40L179 41L178 40z"/>
<path style="fill:#94a9d0; stroke:none;" d="M181 40L182 41L181 40M198 40L199 41L198 40M56 41L57 42L56 41M80 41L81 42L80 41M129 41L130 42L129 41M145 41L146 42L145 41z"/>
<path style="fill:#ee6f79; stroke:none;" d="M152 41L153 42L152 41z"/>
<path style="fill:#94a9d0; stroke:none;" d="M197 41L198 42L197 41M127 42L128 43L127 42M182 42L183 43L182 42M196 42L197 43L196 42M55 43L56 44L55 43M81 43L82 44L81 43M125 43L126 44L125 43z"/>
<path style="fill:#ee6f79; stroke:none;" d="M153 43L154 44L153 43M180 43L181 44L180 43z"/>
<path style="fill:#94a9d0; stroke:none;" d="M183 43L184 44L183 43M195 43L196 44L195 43M124 44L125 45L124 44M147 44L148 45L147 44z"/>
<path style="fill:#ee6f79; stroke:none;" d="M154 44L155 45L154 44z"/>
<path style="fill:#94a9d0; stroke:none;" d="M193 44L194 45L193 44M247 44L248 45L247 44z"/>
<path style="fill:#ee6f79; stroke:none;" d="M248 44L249 45L248 44z"/>
<path style="fill:#ed3338; stroke:none;" d="M249 44L249 45C252.991 45.9485 256.634 47.3794 259.999 49.7894C286.112 68.4883 262.011 101.572 245.985 118C206.538 158.438 151.863 186.706 96 195.41C68.0087 199.771 31.2793 192.67 38 157L37 157C34.2283 162.828 31.3665 168.576 30.2855 175C23.7967 213.561 68.8519 216.093 96 212.715C156.074 205.241 219.378 171.49 260.961 128C279.78 108.318 308.348 63.862 269 48.4637C262.682 45.9915 255.699 44.8511 249 44z"/>
<path style="fill:#ee6f79; stroke:none;" d="M252 44L252 45L256 45L252 44z"/>
<path style="fill:#94a9d0; stroke:none;" d="M54.3333 45.6667L54.6667 46.3333L54.3333 45.6667M122 45L123 46L122 45z"/>
<path style="fill:#ee6f79; stroke:none;" d="M155 45L156 46L155 45M181 45L182 46L181 45z"/>
<path style="fill:#94a9d0; stroke:none;" d="M184 45L185 46L184 45M191 45L192 46L191 45z"/>
<path style="fill:#ee6f79; stroke:none;" d="M251 45L252 46L251 45M258.667 45.3333L259.333 45.6667L258.667 45.3333z"/>
<path style="fill:#94a9d0; stroke:none;" d="M82 46L83 47L82 46M121 46L122 47L121 46M148 46L149 47L148 46M155 46L156 47L155 46z"/>
<path style="fill:#ee6f79; stroke:none;" d="M182 46L183 47L182 46z"/>
<path style="fill:#94a9d0; stroke:none;" d="M185 46L186 47L185 46M188.667 46.3333L189.333 46.6667L188.667 46.3333z"/>
<path style="fill:#ee6f79; stroke:none;" d="M253.667 46.3333L254.333 46.6667L253.667 46.3333M262.667 46.3333L263.333 46.6667L262.667 46.3333z"/>
<path style="fill:#94a9d0; stroke:none;" d="M145.667 47.3333L146.333 47.6667L145.667 47.3333z"/>
<path style="fill:#ee6f79; stroke:none;" d="M156 47L157 48L156 47M256 47L257 48L256 47M266 47L267 48L266 47z"/>
<path style="fill:#94a9d0; stroke:none;" d="M267 47L268 48L267 47M53 48L54 49L53 48M83 48L84 49L83 48M118 48L119 49L118 48M141.667 48.3333L142.333 48.6667L141.667 48.3333z"/>
<path style="fill:#ee6f79; stroke:none;" d="M157 48L158 49L157 48M258 48L259 49L258 48M269 48L270 49L269 48z"/>
<path style="fill:#94a9d0; stroke:none;" d="M117 49L118 50L117 49M139 49L140 50L139 49M157 49L158 50L157 49z"/>
<path style="fill:#ee6f79; stroke:none;" d="M184 49L185 50L184 49M259 49L260 50L259 49M271.667 49.3333L272.333 49.6667L271.667 49.3333z"/>
<path style="fill:#94a9d0; stroke:none;" d="M52 50L53 51L52 50M84 50L85 51L84 50M136 50L137 51L136 50z"/>
<path style="fill:#ee6f79; stroke:none;" d="M158 50L159 51L158 50M185 50L186 51L185 50M261 50L262 51L261 50M273 50L274 51L273 50z"/>
<path style="fill:#94a9d0; stroke:none;" d="M274 50L275 51L274 50M134 51L135 52L134 51z"/>
<path style="fill:#ee6f79; stroke:none;" d="M159 51L160 52L159 51M262 51L263 52L262 51M275 51L276 52L275 51z"/>
<path style="fill:#94a9d0; stroke:none;" d="M85 52L86 53L85 52M132 52L133 53L132 52M159 52L160 53L159 52z"/>
<path style="fill:#ee6f79; stroke:none;" d="M186 52L187 53L186 52M263 52L264 53L263 52M277 52L278 53L277 52z"/>
<path style="fill:#94a9d0; stroke:none;" d="M51 53L52 54L51 53M130.667 53.3333L131.333 53.6667L130.667 53.3333z"/>
<path style="fill:#ee6f79; stroke:none;" d="M160 53L161 54L160 53M187 53L188 54L187 53M264 53L265 54L264 53M278 53L279 54L278 53z"/>
<path style="fill:#94a9d0; stroke:none;" d="M64.6667 54.3333L65.3333 54.6667L64.6667 54.3333M86.3333 54.6667L86.6667 55.3333L86.3333 54.6667M129 54L130 55L129 54z"/>
<path style="fill:#ee6f79; stroke:none;" d="M161 54L162 55L161 54M265 54L266 55L265 54M279 54L280 55L279 54z"/>
<path style="fill:#94a9d0; stroke:none;" d="M50 55L51 56L50 55z"/>
<path style="fill:#ee6f79; stroke:none;" d="M188 55L189 56L188 55M266 55L267 56L266 55M280 55L281 56L280 55z"/>
<path style="fill:#94a9d0; stroke:none;" d="M63.3333 56.6667L63.6667 57.3333L63.3333 56.6667M66 56L67 57L66 56M126 56L127 57L126 56z"/>
<path style="fill:#ee6f79; stroke:none;" d="M162 56L163 57L162 56M189 56L190 57L189 56z"/>
<path style="fill:#94a9d0; stroke:none;" d="M49.3333 57.6667L49.6667 58.3333L49.3333 57.6667M87 57L88 58L87 57M109 57L110 58L109 57M125 57L126 58L125 57z"/>
<path style="fill:#ee6f79; stroke:none;" d="M163 57L164 58L163 57M267 57L268 58L267 57M282 57L283 58L282 57z"/>
<path style="fill:#94a9d0; stroke:none;" d="M67 58L68 59L67 58M108 58L109 59L108 58z"/>
<path style="fill:#ee6f79; stroke:none;" d="M190 58L191 59L190 58M268 58L269 59L268 58M283 58L284 59L283 58z"/>
<path style="fill:#94a9d0; stroke:none;" d="M62 59L63 60L62 59M88 59L89 60L88 59M107 59L108 60L107 59z"/>
<path style="fill:#ee6f79; stroke:none;" d="M164 59L165 60L164 59M284 59L285 60L284 59z"/>
<path style="fill:#94a9d0; stroke:none;" d="M48 60L49 61L48 60M68 60L69 61L68 60M121 60L122 61L121 60z"/>
<path style="fill:#ee6f79; stroke:none;" d="M165 60L166 61L165 60M269 60L270 61L269 60z"/>
<path style="fill:#94a9d0; stroke:none;" d="M61 61L62 62L61 61M89.3333 61.6667L89.6667 62.3333L89.3333 61.6667M106 61L107 62L106 61M120 61L121 62L120 61z"/>
<path style="fill:#ee6f79; stroke:none;" d="M189 61L190 62L189 61M285 61L286 62L285 61z"/>
<path style="fill:#94a9d0; stroke:none;" d="M47.3333 62.6667L47.6667 63.3333L47.3333 62.6667M69.3333 62.6667L69.6667 63.3333L69.3333 62.6667M105 62L106 63L105 62M119 62L120 63L119 62z"/>
<path style="fill:#ee6f79; stroke:none;" d="M166 62L167 63L166 62M188 62L189 63L188 62M270.333 62.6667L270.667 63.3333L270.333 62.6667z"/>
<path style="fill:#94a9d0; stroke:none;" d="M60 63L61 64L60 63z"/>
<path style="fill:#ee6f79; stroke:none;" d="M167 63L168 64L167 63M286 63L287 64L286 63z"/>
<path style="fill:#94a9d0; stroke:none;" d="M46.3333 64.6667L46.6667 65.3333L46.3333 64.6667M90 64L91 65L90 64M104 64L105 65L104 64z"/>
<path style="fill:#ee6f79; stroke:none;" d="M185 64L186 65L185 64M287.333 64.6667L287.667 65.3333L287.333 64.6667z"/>
<path style="fill:#94a9d0; stroke:none;" d="M70 65L71 66L70 65M103 65L104 66L103 65M117 65L118 66L117 65z"/>
<path style="fill:#ee6f79; stroke:none;" d="M168 65L169 66L168 65M183 65L184 66L183 65z"/>
<path style="fill:#94a9d0; stroke:none;" d="M187 65L186 67L187 65z"/>
<path style="fill:#4166ae; stroke:none;" d="M188 65L179 71L182 77L193 72L188 65z"/>
<path style="fill:#94a9d0; stroke:none;" d="M189 65L190 66L189 65M59 66L60 67L59 66M116 66L117 67L116 66z"/>
<path style="fill:#ee6f79; stroke:none;" d="M169 66L170 67L169 66M182 66L183 67L182 66M271 66L271 76L272 76L271 66z"/>
<path style="fill:#94a9d0; stroke:none;" d="M45 67L46 68L45 67M91 67L92 68L91 67M102 67L103 68L102 67M115 67L116 68L115 67M184 67L185 68L184 67M58 68L59 69L58 68M71 68L72 69L71 68z"/>
<path style="fill:#ee6f79; stroke:none;" d="M170 68L171 69L170 68M179 68L180 69L179 68z"/>
<path style="fill:#94a9d0; stroke:none;" d="M183 68L184 69L183 68M191 68L192 69L191 68z"/>
<path style="fill:#ee6f79; stroke:none;" d="M288.333 68.6667L288.667 69.3333L288.333 68.6667z"/>
<path style="fill:#94a9d0; stroke:none;" d="M44.3333 69.6667L44.6667 70.3333L44.3333 69.6667M92.3333 69.6667L92.6667 70.3333L92.3333 69.6667M101 69L102 70L101 69M114 69L115 70L114 69z"/>
<path style="fill:#ee6f79; stroke:none;" d="M171 69L172 70L171 69z"/>
<path style="fill:#94a9d0; stroke:none;" d="M181 69L182 70L181 69M192 69L193 70L192 69M57 70L58 71L57 70M72.3333 70.6667L72.6667 71.3333L72.3333 70.6667M113 70L114 71L113 70z"/>
<path style="fill:#ee6f79; stroke:none;" d="M176 70L177 71L176 70z"/>
<path style="fill:#94a9d0; stroke:none;" d="M180 70L181 71L180 70M100 71L101 72L100 71z"/>
<path style="fill:#ee6f79; stroke:none;" d="M172 71L173 72L172 71M175 71L176 72L175 71z"/>
<path style="fill:#94a9d0; stroke:none;" d="M43 72L44 73L43 72M56.3333 72.6667L56.6667 73.3333L56.3333 72.6667M93.3333 72.6667L93.6667 73.3333L93.3333 72.6667M112 72L113 73L112 72M179 72L180 73L179 72M191 72L192 73L191 72M73 73L74 74L73 73M190 73L188 74L185 76L187 80L188 80L188 75L190 73M42 74L43 75L42 74M99 74L100 75L99 74M111 74L112 75L111 74M180 74L181 75L180 74z"/>
<path style="fill:#fefefe; stroke:none;" d="M189 74L190 75L189 74z"/>
<path style="fill:#4166ae; stroke:none;" d="M191 74L187 79L193 75L191 74z"/>
<path style="fill:#94a9d0; stroke:none;" d="M192 74L193 75L192 74M289.333 74.6667L289.667 75.3333L289.333 74.6667M55 75L56 76L55 75M94 75L95 76L94 75M181 75L182 76L181 75z"/>
<path style="fill:#fefefe; stroke:none;" d="M188 75L189 76L188 75z"/>
<path style="fill:#94a9d0; stroke:none;" d="M74 76L75 77L74 76M98.3333 76.6667L98.6667 77.3333L98.3333 76.6667M110.333 76.6667L110.667 77.3333L110.333 76.6667z"/>
<path style="fill:#fefefe; stroke:none;" d="M186 76L187 77L186 76z"/>
<path style="fill:#94a9d0; stroke:none;" d="M192 76L193 77L192 76M41 77L42 78L41 77M54 77L55 78L54 77M182.667 77.3333L183.333 77.6667L182.667 77.3333M190 77L191 78L190 77M75.3333 78.6667L75.6667 79.3333L75.3333 78.6667M95 78L96 79L95 78M189 78L190 79L189 78M270 78L271 79L270 78M40 79L41 80L40 79M53 79L54 80L53 79M97 79L96 81L98 81L97 79M109 79L110 80L109 79M171 79L171 80L177 80L171 79z"/>
<path style="fill:#ee6f79; stroke:none;" d="M270 79L271 80L270 79z"/>
<path style="fill:#94a9d0; stroke:none;" d="M39.3333 81.6667L39.6667 82.3333L39.3333 81.6667M76 81L77 82L76 81z"/>
<path style="fill:#ee6f79; stroke:none;" d="M288 81L288 84L289 84L288 81z"/>
<path style="fill:#94a9d0; stroke:none;" d="M52 82L53 83L52 82M108.333 82.6667L108.667 83.3333L108.333 82.6667z"/>
<path style="fill:#ee6f79; stroke:none;" d="M205 82L206 85L207 85L205 82M269 82L270 83L269 82z"/>
<path style="fill:#ed3338; stroke:none;" d="M205 83C202.881 88.71 197.935 93.8558 197.231 100C196.367 107.542 205.582 113.521 211.427 107.566C218.18 100.688 209.791 88.5133 205 83z"/>
<path style="fill:#94a9d0; stroke:none;" d="M38 84L39 85L38 84M51 84L52 85L51 84M77 84L78 85L77 84z"/>
<path style="fill:#ee6f79; stroke:none;" d="M204 84L205 85L204 84z"/>
<path style="fill:#94a9d0; stroke:none;" d="M107 85L107 88L108 88L107 85M207 85L208 86L207 85z"/>
<path style="fill:#ee6f79; stroke:none;" d="M268 85L269 86L268 85z"/>
<path style="fill:#94a9d0; stroke:none;" d="M37.3333 86.6667L37.6667 87.3333L37.3333 86.6667M50.3333 86.6667L50.6667 87.3333L50.3333 86.6667M78.3333 86.6667L78.6667 87.3333L78.3333 86.6667z"/>
<path style="fill:#ee6f79; stroke:none;" d="M203.333 86.6667L203.667 87.3333L203.333 86.6667M207 86L208 87L207 86M287.333 86.6667L287.667 87.3333L287.333 86.6667z"/>
<path style="fill:#94a9d0; stroke:none;" d="M194 87L195 88L194 87z"/>
<path style="fill:#ee6f79; stroke:none;" d="M195 87L196 88L195 87z"/>
<path style="fill:#94a9d0; stroke:none;" d="M208 87L209 88L208 87M267 87L268 88L267 87z"/>
<path style="fill:#ed3338; stroke:none;" d="M194 88L194 93L197 93L194 88z"/>
<path style="fill:#ee6f79; stroke:none;" d="M202 88L203 89L202 88z"/>
<path style="fill:#94a9d0; stroke:none;" d="M36 89L37 90L36 89M49 89L50 90L49 89M79.3333 89.6667L79.6667 90.3333L79.3333 89.6667z"/>
<path style="fill:#ee6f79; stroke:none;" d="M193 89L193 93L194 93L195 89L193 89M196 89L197 90L196 89M209 89L210 90L209 89z"/>
<path style="fill:#94a9d0; stroke:none;" d="M266 89L267 90L266 89z"/>
<path style="fill:#ee6f79; stroke:none;" d="M286 89L287 90L286 89M201 90L202 91L201 90M266 90L267 91L266 90z"/>
<path style="fill:#94a9d0; stroke:none;" d="M35 91L36 92L35 91M48.3333 91.6667L48.6667 92.3333L48.3333 91.6667M106 91L106 101L107 101L106 91M197 91L198 92L197 91z"/>
<path style="fill:#ee6f79; stroke:none;" d="M200 91L201 92L200 91M202 91L201 93L203 93L202 91M210 91L211 92L210 91M265.333 91.6667L265.667 92.3333L265.333 91.6667z"/>
<path style="fill:#94a9d0; stroke:none;" d="M80 92L81 93L80 92z"/>
<path style="fill:#ee6f79; stroke:none;" d="M211 92L212 93L211 92M285 92L286 93L285 92z"/>
<path style="fill:#94a9d0; stroke:none;" d="M34.3333 93.6667L34.6667 94.3333L34.3333 93.6667z"/>
<path style="fill:#ee6f79; stroke:none;" d="M194.667 93.3333L195.333 93.6667L194.667 93.3333M199 93L200 94L199 93z"/>
<path style="fill:#fefefe; stroke:none;" d="M201 93C199.793 96.7805 196.541 103.83 202 105L201 93z"/>
<path style="fill:#ee6f79; stroke:none;" d="M264 93L265 94L264 93z"/>
<path style="fill:#94a9d0; stroke:none;" d="M47.3333 94.6667L47.6667 95.3333L47.3333 94.6667M198 94L199 95L198 94z"/>
<path style="fill:#ee6f79; stroke:none;" d="M200 94L201 95L200 94M212 94L213 95L212 94M284 94L285 95L284 94z"/>
<path style="fill:#94a9d0; stroke:none;" d="M81 95L82 96L81 95z"/>
<path style="fill:#ee6f79; stroke:none;" d="M190 95L192 97L192 95L190 95M198 95L199 96L198 95M201 95L201 101L202 101L201 95M263 95L264 96L263 95z"/>
<path style="fill:#94a9d0; stroke:none;" d="M284 95L285 96L284 95M33 96L34 97L33 96z"/>
<path style="fill:#ed3338; stroke:none;" d="M190 96L188 109C198.275 111.283 194.708 100.35 190 96z"/>
<path style="fill:#94a9d0; stroke:none;" d="M197 96L198 97L197 96z"/>
<path style="fill:#ee6f79; stroke:none;" d="M199 96L200 97L199 96M213.333 96.6667L213.667 97.3333L213.333 96.6667M283 96L284 97L283 96z"/>
<path style="fill:#94a9d0; stroke:none;" d="M46 97L47 98L46 97z"/>
<path style="fill:#ee6f79; stroke:none;" d="M189 97L190 98L189 97z"/>
<path style="fill:#94a9d0; stroke:none;" d="M192 97L193 98L192 97z"/>
<path style="fill:#ee6f79; stroke:none;" d="M197 97L198 98L197 97z"/>
<path style="fill:#94a9d0; stroke:none;" d="M199 97L200 98L199 97z"/>
<path style="fill:#ee6f79; stroke:none;" d="M262 97L263 98L262 97z"/>
<path style="fill:#94a9d0; stroke:none;" d="M283 97L284 98L283 97M32 98L33 99L32 98M82 98L83 99L82 98z"/>
<path style="fill:#ee6f79; stroke:none;" d="M192 98L193 99L192 98z"/>
<path style="fill:#94a9d0; stroke:none;" d="M214 98L215 99L214 98z"/>
<path style="fill:#ee6f79; stroke:none;" d="M261 98L262 99L261 98M282 98L283 99L282 98M188 99L186 102L188 105L189 105L188 99M193 99L194 100L193 99M198 99L198 104L199 104L198 99M214 99L214 104L215 104L214 99z"/>
<path style="fill:#94a9d0; stroke:none;" d="M45 100L45 104L46 104L45 100M83.3333 100.667L83.6667 101.333L83.3333 100.667z"/>
<path style="fill:#ee6f79; stroke:none;" d="M196 100L196 103L197 103L196 100M260 100L261 101L260 100M281 100L282 101L281 100z"/>
<path style="fill:#94a9d0; stroke:none;" d="M30 101L31 102L30 101z"/>
<path style="fill:#ed3338; stroke:none;" d="M187 101L188 102L187 101z"/>
<path style="fill:#ee6f79; stroke:none;" d="M194 101L195 102L194 101z"/>
<path style="fill:#94a9d0; stroke:none;" d="M201 101L202 102L201 101z"/>
<path style="fill:#ee6f79; stroke:none;" d="M259 101L260 102L259 101z"/>
<path style="fill:#94a9d0; stroke:none;" d="M29 102L30 103L29 102z"/>
<path style="fill:#ee6f79; stroke:none;" d="M280 102L281 103L280 102z"/>
<path style="fill:#94a9d0; stroke:none;" d="M28 103L29 104L28 103M84 103L85 104L84 103z"/>
<path style="fill:#ed3338; stroke:none;" d="M186 103L186 107L187 107L186 103z"/>
<path style="fill:#fefefe; stroke:none;" d="M187 103L189 107L187 103z"/>
<path style="fill:#ee6f79; stroke:none;" d="M195 103L196 104L195 103M258 103L259 104L258 103z"/>
<path style="fill:#94a9d0; stroke:none;" d="M27 104L28 105L27 104z"/>
<path style="fill:#ee6f79; stroke:none;" d="M257 104L258 105L257 104z"/>
<path style="fill:#94a9d0; stroke:none;" d="M279 104L280 105L279 104M26 105L27 106L26 105M46 105L47 106L46 105M107.333 105.667L107.667 106.333L107.333 105.667M188 105L189 106L188 105z"/>
<path style="fill:#ee6f79; stroke:none;" d="M197 105L198 106L197 105M199 105L199 106L202 106L199 105M213 105L214 106L213 105M256 105L257 106L256 105M278 105L279 106L278 105z"/>
<path style="fill:#94a9d0; stroke:none;" d="M24.6667 106.333L25.3333 106.667L24.6667 106.333M47 106L48 107L47 106M85 106L86 107L85 106z"/>
<path style="fill:#ee6f79; stroke:none;" d="M195.333 106.667L195.667 107.333L195.333 106.667M198 106L199 107L198 106M212.333 106.667L212.667 107.333L212.333 106.667z"/>
<path style="fill:#94a9d0; stroke:none;" d="M22.6667 107.333L23.3333 107.667L22.6667 107.333M48 107L49 108L48 107z"/>
<path style="fill:#ee6f79; stroke:none;" d="M186 107L189 110L189 107L186 107M255 107L256 108L255 107M277 107L278 108L277 107z"/>
<path style="fill:#94a9d0; stroke:none;" d="M19.6667 108.333L20.3333 108.667L19.6667 108.333M50 108L51 109L50 108M186 108L187 109L186 108z"/>
<path style="fill:#ee6f79; stroke:none;" d="M194 108L195 109L194 108M200 108L201 109L200 108M211 108L212 109L211 108M254 108L255 109L254 108M276 108L277 109L276 108z"/>
<path style="fill:#94a9d0; stroke:none;" d="M14.6667 109.333L15.3333 109.667L14.6667 109.333M53 109L53 110L56 110L53 109M86 109L87 110L86 109M108.333 109.667L108.667 110.333L108.333 109.667z"/>
<path style="fill:#ee6f79; stroke:none;" d="M193 109L194 110L193 109M201 109L202 110L201 109M209 109L210 110L209 109M253 109L254 110L253 109z"/>
<path style="fill:#94a9d0; stroke:none;" d="M10.3333 110.667L10.6667 111.333L10.3333 110.667M57.3333 110.667L57.6667 111.333L57.3333 110.667z"/>
<path style="fill:#ee6f79; stroke:none;" d="M190.667 110.333L191.333 110.667L190.667 110.333z"/>
<path style="fill:#94a9d0; stroke:none;" d="M204 110L205 111L204 110z"/>
<path style="fill:#ee6f79; stroke:none;" d="M205 110L206 111L205 110z"/>
<path style="fill:#94a9d0; stroke:none;" d="M206 110L207 111L206 110z"/>
<path style="fill:#ee6f79; stroke:none;" d="M275 110L276 111L275 110z"/>
<path style="fill:#94a9d0; stroke:none;" d="M87 111L88 112L87 111z"/>
<path style="fill:#ee6f79; stroke:none;" d="M274 111L275 112L274 111z"/>
<path style="fill:#94a9d0; stroke:none;" d="M14 112L14 113L55 113C44.2501 108.489 25.6957 112 14 112M109 112L110 113L109 112z"/>
<path style="fill:#ee6f79; stroke:none;" d="M250 113L251 114L250 113M273 113L274 114L273 113z"/>
<path style="fill:#94a9d0; stroke:none;" d="M88 114L89 115L88 114M110.333 114.667L110.667 115.333L110.333 114.667z"/>
<path style="fill:#ee6f79; stroke:none;" d="M249 114L250 115L249 114M272 114L273 115L272 114M248 115L249 116L248 115M271 115L272 116L271 115z"/>
<path style="fill:#94a9d0; stroke:none;" d="M89 116L90 117L89 116z"/>
<path style="fill:#ee6f79; stroke:none;" d="M247 116L248 117L247 116M270 116L271 117L270 116z"/>
<path style="fill:#94a9d0; stroke:none;" d="M111 117L112 118L111 117M224 117L224 123L225 123L224 117z"/>
<path style="fill:#ee6f79; stroke:none;" d="M246 117L247 118L246 117z"/>
<path style="fill:#94a9d0; stroke:none;" d="M270 117L271 118L270 117M90 118L91 119L90 118z"/>
<path style="fill:#ee6f79; stroke:none;" d="M245 118L246 119L245 118M269 118L270 119L269 118z"/>
<path style="fill:#94a9d0; stroke:none;" d="M112 119L113 120L112 119M244 119L245 120L244 119z"/>
<path style="fill:#ee6f79; stroke:none;" d="M268 119L269 120L268 119z"/>
<path style="fill:#94a9d0; stroke:none;" d="M91 120L92 121L91 120z"/>
<path style="fill:#ee6f79; stroke:none;" d="M243 120L244 121L243 120M267 120L268 121L267 120z"/>
<path style="fill:#94a9d0; stroke:none;" d="M113 121L114 122L113 121z"/>
<path style="fill:#ee6f79; stroke:none;" d="M242 121L243 122L242 121M266 121L267 122L266 121z"/>
<path style="fill:#94a9d0; stroke:none;" d="M92 122L93 123L92 122M114 122L115 123L114 122z"/>
<path style="fill:#ee6f79; stroke:none;" d="M241 122L242 123L241 122M265 122L266 123L265 122z"/>
<path style="fill:#94a9d0; stroke:none;" d="M211.333 123.667L211.667 124.333L211.333 123.667z"/>
<path style="fill:#ee6f79; stroke:none;" d="M240 123L241 124L240 123z"/>
<path style="fill:#94a9d0; stroke:none;" d="M93 124L94 125L93 124M115 124L116 125L115 124M198 124L199 125L198 124M239 124L240 125L239 124M94 125L95 126L94 125M197 125L198 126L197 125z"/>
<path style="fill:#ee6f79; stroke:none;" d="M238 125L239 126L238 125M263 125L264 126L263 125z"/>
<path style="fill:#94a9d0; stroke:none;" d="M116 126L117 127L116 126M210 126L211 127L210 126z"/>
<path style="fill:#ee6f79; stroke:none;" d="M237 126L238 127L237 126M262 126L263 127L262 126z"/>
<path style="fill:#94a9d0; stroke:none;" d="M95 127L96 128L95 127M117 127L118 128L117 127M209 127L210 128L209 127z"/>
<path style="fill:#ee6f79; stroke:none;" d="M236 127L237 128L236 127M261 127L262 128L261 127z"/>
<path style="fill:#94a9d0; stroke:none;" d="M118 128L119 129L118 128M195 128L196 129L195 128z"/>
<path style="fill:#ee6f79; stroke:none;" d="M235 128L236 129L235 128M260 128L261 129L260 128z"/>
<path style="fill:#94a9d0; stroke:none;" d="M96 129L97 130L96 129M194 129L195 130L194 129M208 129L209 130L208 129z"/>
<path style="fill:#ee6f79; stroke:none;" d="M234 129L235 130L234 129M259 129L260 130L259 129z"/>
<path style="fill:#94a9d0; stroke:none;" d="M97 130L98 131L97 130M119 130L120 131L119 130M193 130L194 131L193 130M207 130L208 131L207 130z"/>
<path style="fill:#ee6f79; stroke:none;" d="M233 130L234 131L233 130M258 130L259 131L258 130z"/>
<path style="fill:#94a9d0; stroke:none;" d="M120 131L121 132L120 131z"/>
<path style="fill:#ee6f79; stroke:none;" d="M257 131L258 132L257 131z"/>
<path style="fill:#94a9d0; stroke:none;" d="M98 132L99 133L98 132M121 132L122 133L121 132M206 132L207 133L206 132z"/>
<path style="fill:#ee6f79; stroke:none;" d="M230 132L231 133L230 132M256 132L257 133L256 132z"/>
<path style="fill:#94a9d0; stroke:none;" d="M99 133L100 134L99 133M122 133L123 134L122 133M189 133L190 134L189 133M205 133L206 134L205 133z"/>
<path style="fill:#ee6f79; stroke:none;" d="M229 133L230 134L229 133M255 133L256 134L255 133z"/>
<path style="fill:#94a9d0; stroke:none;" d="M123 134L124 135L123 134M188 134L189 135L188 134z"/>
<path style="fill:#ee6f79; stroke:none;" d="M228 134L229 135L228 134M254 134L255 135L254 134z"/>
<path style="fill:#94a9d0; stroke:none;" d="M124 135L125 136L124 135M187 135L188 136L187 135z"/>
<path style="fill:#ee6f79; stroke:none;" d="M227 135L228 136L227 135M253 135L254 136L253 135z"/>
<path style="fill:#94a9d0; stroke:none;" d="M101 136L102 137L101 136M126 136L127 137L126 136M186 136L187 137L186 136M203 136L204 137L203 136z"/>
<path style="fill:#ee6f79; stroke:none;" d="M224 138L227 136L224 138M252 136L253 137L252 136z"/>
<path style="fill:#94a9d0; stroke:none;" d="M102 137L103 138L102 137M127 137L128 138L127 137M184 137L185 138L184 137M202 137L203 138L202 137M251 137L252 138L251 137M103 138L104 139L103 138M129 138L130 139L129 138M183 138L184 139L183 138M201 138L202 139L201 138z"/>
<path style="fill:#ee6f79; stroke:none;" d="M223 138L224 139L223 138z"/>
<path style="fill:#94a9d0; stroke:none;" d="M104 139L105 140L104 139M130 139L131 140L130 139M182 139L183 140L182 139M200 139L201 140L200 139z"/>
<path style="fill:#ee6f79; stroke:none;" d="M222 139L223 140L222 139z"/>
<path style="fill:#94a9d0; stroke:none;" d="M105 140L106 141L105 140M132 140L133 141L132 140M180 140L181 141L180 140M199 140L200 141L199 140M220 140L221 141L220 140M106 141L107 142L106 141M134 141L135 142L134 141M198 141L199 142L198 141z"/>
<path style="fill:#ee6f79; stroke:none;" d="M219 141L220 142L219 141M246 141L247 142L246 141z"/>
<path style="fill:#94a9d0; stroke:none;" d="M107 142L108 143L107 142M136 142L137 143L136 142M176.667 142.333L177.333 142.667L176.667 142.333M197 142L198 143L197 142z"/>
<path style="fill:#ee6f79; stroke:none;" d="M218 142L219 143L218 142M245 142L246 143L245 142z"/>
<path style="fill:#94a9d0; stroke:none;" d="M108 143L109 144L108 143M138.667 143.333L139.333 143.667L138.667 143.333M174 143L175 144L174 143M196 143L197 144L196 143z"/>
<path style="fill:#ee6f79; stroke:none;" d="M216 143L217 144L216 143M244 143L245 144L244 143z"/>
<path style="fill:#94a9d0; stroke:none;" d="M109 144L110 145L109 144M141.667 144.333L142.333 144.667L141.667 144.333M171 144L172 145L171 144M194 144L195 145L194 144z"/>
<path style="fill:#ee6f79; stroke:none;" d="M215 144L216 145L215 144M243 144L244 145L243 144z"/>
<path style="fill:#94a9d0; stroke:none;" d="M111 145L112 146L111 145M145.667 145.333L146.333 145.667L145.667 145.333M166.667 145.333L167.333 145.667L166.667 145.333M193 145L194 146L193 145z"/>
<path style="fill:#ee6f79; stroke:none;" d="M214 145L215 146L214 145M242 145L243 146L242 145z"/>
<path style="fill:#94a9d0; stroke:none;" d="M112 146L113 147L112 146M150 146L150 147L163 147L150 146M191 146L192 147L191 146z"/>
<path style="fill:#ee6f79; stroke:none;" d="M212 146L213 147L212 146M240 146L241 147L240 146z"/>
<path style="fill:#94a9d0; stroke:none;" d="M113 147L114 148L113 147M190 147L191 148L190 147z"/>
<path style="fill:#ee6f79; stroke:none;" d="M211 147L212 148L211 147M239 147L240 148L239 147z"/>
<path style="fill:#94a9d0; stroke:none;" d="M115 148L116 149L115 148M188 148L189 149L188 148z"/>
<path style="fill:#ee6f79; stroke:none;" d="M209 148L210 149L209 148M238 148L239 149L238 148z"/>
<path style="fill:#94a9d0; stroke:none;" d="M116 149L117 150L116 149M186 149L187 150L186 149z"/>
<path style="fill:#ee6f79; stroke:none;" d="M208 149L209 150L208 149M237 149L238 150L237 149z"/>
<path style="fill:#94a9d0; stroke:none;" d="M118 150L119 151L118 150M184 150L185 151L184 150z"/>
<path style="fill:#ee6f79; stroke:none;" d="M206.667 150.333L207.333 150.667L206.667 150.333z"/>
<path style="fill:#94a9d0; stroke:none;" d="M120 151L121 152L120 151M182 151L183 152L182 151z"/>
<path style="fill:#ee6f79; stroke:none;" d="M205 151L206 152L205 151M234 151L235 152L234 151z"/>
<path style="fill:#94a9d0; stroke:none;" d="M122 152L123 153L122 152M179.667 152.333L180.333 152.667L179.667 152.333z"/>
<path style="fill:#ee6f79; stroke:none;" d="M203 152L204 153L203 152M233 152L234 153L233 152z"/>
<path style="fill:#94a9d0; stroke:none;" d="M39.3333 153.667L39.6667 154.333L39.3333 153.667M124.667 153.333L125.333 153.667L124.667 153.333M176.667 153.333L177.333 153.667L176.667 153.333z"/>
<path style="fill:#ee6f79; stroke:none;" d="M202 153L203 154L202 153M232 153L233 154L232 153M38 154L37 157L38 154z"/>
<path style="fill:#94a9d0; stroke:none;" d="M127.667 154.333L128.333 154.667L127.667 154.333M173.667 154.333L174.333 154.667L173.667 154.333z"/>
<path style="fill:#ee6f79; stroke:none;" d="M200.667 154.333L201.333 154.667L200.667 154.333M230 154L231 155L230 154z"/>
<path style="fill:#94a9d0; stroke:none;" d="M130.667 155.333L131.333 155.667L130.667 155.333M170 155L171 156L170 155z"/>
<path style="fill:#ee6f79; stroke:none;" d="M199 155L200 156L199 155M229 155L230 156L229 155z"/>
<path style="fill:#94a9d0; stroke:none;" d="M134 156L134 157L137 157L134 156M165.667 156.333L166.333 156.667L165.667 156.333z"/>
<path style="fill:#ee6f79; stroke:none;" d="M197 156L198 157L197 156M228 156L229 157L228 156z"/>
<path style="fill:#94a9d0; stroke:none;" d="M38 157L39 158L38 157M140 157L140 158L144 158L140 157M156 157L156 158L161 158L156 157M195 157L196 158L195 157z"/>
<path style="fill:#ee6f79; stroke:none;" d="M196 157L197 158L196 157M226 157L227 158L226 157M36 158L37 159L36 158M194 158L195 159L194 158M225 158L226 159L225 158M37 159L37 162L38 162L37 159M192 159L193 160L192 159M190 160L191 161L190 160M222 160L223 161L222 160M34.3333 161.667L34.6667 162.333L34.3333 161.667M189 161L190 162L189 161M221 161L222 162L221 161M187 162L188 163L187 162M219 162L220 163L219 162z"/>
<path style="fill:#94a9d0; stroke:none;" d="M33 163L34 164L33 163z"/>
<path style="fill:#ee6f79; stroke:none;" d="M185 163L186 164L185 163M218 163L219 164L218 163M33 164L34 165L33 164z"/>
<path style="fill:#94a9d0; stroke:none;" d="M183 164L184 165L183 164z"/>
<path style="fill:#ee6f79; stroke:none;" d="M216 164L217 165L216 164M36 165L36 170L37 170L36 165z"/>
<path style="fill:#94a9d0; stroke:none;" d="M181 165L182 166L181 165z"/>
<path style="fill:#ee6f79; stroke:none;" d="M182 165L183 166L182 165M214.667 165.333L215.333 165.667L214.667 165.333M32 166L33 167L32 166M180 166L181 167L180 166M213 166L214 167L213 166M178 167L179 168L178 167M211 167L212 168L211 167z"/>
<path style="fill:#94a9d0; stroke:none;" d="M212 167L213 168L212 167z"/>
<path style="fill:#ee6f79; stroke:none;" d="M176 168L177 169L176 168M210 168L211 169L210 168M31 169L32 170L31 169M174 169L175 170L174 169M208 169L209 170L208 169M172 170L173 171L172 170M207 170L208 171L207 170M170 171L171 172L170 171M205 171L206 172L205 171M30.3333 172.667L30.6667 173.333L30.3333 172.667M168 172L169 173L168 172M203 172L204 173L203 172M166 173L167 174L166 173M202 173L203 174L202 173M37.3333 174.667L37.6667 175.333L37.3333 174.667z"/>
<path style="fill:#94a9d0; stroke:none;" d="M163 174L164 175L163 174z"/>
<path style="fill:#ee6f79; stroke:none;" d="M164 174L165 175L164 174M200 174L201 175L200 174z"/>
<path style="fill:#94a9d0; stroke:none;" d="M161 175L162 176L161 175z"/>
<path style="fill:#ee6f79; stroke:none;" d="M162 175L163 176L162 175M198 175L199 176L198 175M29 176L29 181L30 181L29 176z"/>
<path style="fill:#94a9d0; stroke:none;" d="M159 176L160 177L159 176z"/>
<path style="fill:#ee6f79; stroke:none;" d="M196.667 176.333L197.333 176.667L196.667 176.333M38.3333 177.667L38.6667 178.333L38.3333 177.667M157 177L158 178L157 177M195 177L196 178L195 177M154.667 178.333L155.333 178.667L154.667 178.333M193 178L194 179L193 178M39 179L40 180L39 179M152.667 179.333L153.333 179.667L152.667 179.333M191 179L192 180L191 179z"/>
<path style="fill:#94a9d0; stroke:none;" d="M149 180L150 181L149 180z"/>
<path style="fill:#ee6f79; stroke:none;" d="M150 180L151 181L150 180M189 180L190 181L189 180M40 181L41 182L40 181M147 181L148 182L147 181M187 181L188 182L187 181M41.3333 182.667L41.6667 183.333L41.3333 182.667M144.667 182.333L145.333 182.667L144.667 182.333M185 182L186 183L185 182M141.667 183.333L142.333 183.667L141.667 183.333M183 183L184 184L183 183M29 184L29 188L30 188L29 184M42 184L43 185L42 184M139 184L140 185L139 184M181 184L182 185L181 184M43 185L44 186L43 185M136.667 185.333L137.333 185.667L136.667 185.333M179 185L180 186L179 185M44 186L45 187L44 186z"/>
<path style="fill:#94a9d0; stroke:none;" d="M132 186L133 187L132 186z"/>
<path style="fill:#ee6f79; stroke:none;" d="M133 186L134 187L133 186M177 186L178 187L177 186M46 187L47 188L46 187z"/>
<path style="fill:#94a9d0; stroke:none;" d="M129 187L130 188L129 187z"/>
<path style="fill:#ee6f79; stroke:none;" d="M130 187L131 188L130 187M175 187L176 188L175 187M47 188L48 189L47 188M126.667 188.333L127.333 188.667L126.667 188.333M173 188L174 189L173 188z"/>
<path style="fill:#94a9d0; stroke:none;" d="M174 188L175 189L174 188z"/>
<path style="fill:#ee6f79; stroke:none;" d="M48.6667 189.333L49.3333 189.667L48.6667 189.333M122.667 189.333L123.333 189.667L122.667 189.333M171 189L172 190L171 189M50 190L51 191L50 190z"/>
<path style="fill:#94a9d0; stroke:none;" d="M51 190L52 191L51 190M118 190L119 191L118 190z"/>
<path style="fill:#ee6f79; stroke:none;" d="M119 190L120 191L119 190M169 190L170 191L169 190M30.3333 191.667L30.6667 192.333L30.3333 191.667M52.6667 191.333L53.3333 191.667L52.6667 191.333M115.667 191.333L116.333 191.667L115.667 191.333M166.667 191.333L167.333 191.667L166.667 191.333M55 192L56 193L55 192M110.667 192.333L111.333 192.667L110.667 192.333M164.667 192.333L165.333 192.667L164.667 192.333M57.6667 193.333L58.3333 193.667L57.6667 193.333M105 193L105 194L108 194L105 193M162 193L163 194L162 193z"/>
<path style="fill:#94a9d0; stroke:none;" d="M163 193L164 194L163 193z"/>
<path style="fill:#ee6f79; stroke:none;" d="M31 194L32 195L31 194M61.6667 194.333L62.3333 194.667L61.6667 194.333M99 194L99 195L102 195L99 194M160 194L161 195L160 194z"/>
<path style="fill:#94a9d0; stroke:none;" d="M31 195L32 196L31 195z"/>
<path style="fill:#ee6f79; stroke:none;" d="M66 195L66 196L69 196L66 195M91 195L91 196L96 196L91 195M158 195L159 196L158 195M32 196L33 197L32 196M77 196L77 197L83 197L77 196M155 196L156 197L155 196z"/>
<path style="fill:#94a9d0; stroke:none;" d="M156 196L157 197L156 196z"/>
<path style="fill:#ee6f79; stroke:none;" d="M153 197L154 198L153 197M33 198L34 199L33 198M150.667 198.333L151.333 198.667L150.667 198.333M34 199L35 200L34 199M147.667 199.333L148.333 199.667L147.667 199.333M35 200L36 201L35 200M144.667 200.333L145.333 200.667L144.667 200.333M36 201L37 202L36 201M142 201L143 202L142 201M37 202L38 203L37 202M139 202L140 203L139 202M38 203L39 204L38 203M136 203L137 204L136 203z"/>
<path style="fill:#94a9d0; stroke:none;" d="M137 203L138 204L137 203z"/>
<path style="fill:#ee6f79; stroke:none;" d="M39 204L40 205L39 204M133 204L134 205L133 204M41 205L42 206L41 205M129.667 205.333L130.333 205.667L129.667 205.333M42 206L43 207L42 206M125.667 206.333L126.333 206.667L125.667 206.333M44 207L45 208L44 207M121.667 207.333L122.333 207.667L121.667 207.333M46 208L47 209L46 208M117.667 208.333L118.333 208.667L117.667 208.333z"/>
<path style="fill:#94a9d0; stroke:none;" d="M119 208L120 209L119 208z"/>
<path style="fill:#ee6f79; stroke:none;" d="M48 209L49 210L48 209M113.667 209.333L114.333 209.667L113.667 209.333M50.6667 210.333L51.3333 210.667L50.6667 210.333M109.667 210.333L110.333 210.667L109.667 210.333M53.6667 211.333L54.3333 211.667L53.6667 211.333M104.667 211.333L105.333 211.667L104.667 211.333z"/>
<path style="fill:#94a9d0; stroke:none;" d="M56 212L57 213L56 212z"/>
<path style="fill:#ee6f79; stroke:none;" d="M57.6667 212.333L58.3333 212.667L57.6667 212.333M97 212L97 213L100 213L97 212z"/>
<path style="fill:#94a9d0; stroke:none;" d="M100 212L101 213L100 212z"/>
<path style="fill:#ee6f79; stroke:none;" d="M62 213L62 214L66 214L62 213M88 213L88 214L92 214L88 213z"/>
<path style="fill:#94a9d0; stroke:none;" d="M92 213L93 214L92 213M72 214L72 215L80 215L72 214z"/>
</svg>
